<mxfile host="app.diagrams.net" modified="2021-01-11T17:19:52.047Z" agent="5.0 (Macintosh; Intel Mac OS X 10_15_7) AppleWebKit/537.36 (KHTML, like Gecko) Chrome/87.0.4280.141 Safari/537.36" etag="qXj7j8o9E4wXgJgIOCWT" version="14.1.9" type="github">
  <diagram id="4WrsI7V_JcW5eWz56Qfs" name="Page-1">
    <mxGraphModel dx="797" dy="814" grid="1" gridSize="10" guides="1" tooltips="1" connect="1" arrows="1" fold="1" page="1" pageScale="1" pageWidth="850" pageHeight="1100" math="0" shadow="0">
      <root>
        <mxCell id="0" />
        <mxCell id="1" parent="0" />
        <mxCell id="0QqT_xMATzPDEKyegkB2-1" value="&lt;font face=&quot;Cousine&quot; data-font-src=&quot;https://fonts.googleapis.com/css?family=Cousine&quot;&gt;Data&lt;br&gt;DOI:10.9999&lt;/font&gt;" style="strokeWidth=2;html=1;shape=mxgraph.flowchart.multi-document;whiteSpace=wrap;" vertex="1" parent="1">
          <mxGeometry x="250" y="60" width="130" height="70" as="geometry" />
        </mxCell>
        <mxCell id="0QqT_xMATzPDEKyegkB2-2" style="edgeStyle=orthogonalEdgeStyle;rounded=0;orthogonalLoop=1;jettySize=auto;html=1;entryX=0;entryY=0.5;entryDx=0;entryDy=0;entryPerimeter=0;dashed=1;strokeWidth=2;" edge="1" parent="1" source="0QqT_xMATzPDEKyegkB2-6" target="0QqT_xMATzPDEKyegkB2-9">
          <mxGeometry relative="1" as="geometry" />
        </mxCell>
        <mxCell id="0QqT_xMATzPDEKyegkB2-3" value="Updated" style="edgeLabel;html=1;align=center;verticalAlign=middle;resizable=0;points=[];fontFamily=Cousine;fontSource=https%3A%2F%2Ffonts.googleapis.com%2Fcss%3Ffamily%3DCousine;fontSize=13;" vertex="1" connectable="0" parent="0QqT_xMATzPDEKyegkB2-2">
          <mxGeometry x="-0.2556" y="2" relative="1" as="geometry">
            <mxPoint x="23" y="2" as="offset" />
          </mxGeometry>
        </mxCell>
        <mxCell id="0QqT_xMATzPDEKyegkB2-4" style="edgeStyle=orthogonalEdgeStyle;rounded=0;orthogonalLoop=1;jettySize=auto;html=1;entryX=0;entryY=0.5;entryDx=0;entryDy=0;entryPerimeter=0;fontSize=13;exitX=0.5;exitY=0;exitDx=0;exitDy=0;exitPerimeter=0;" edge="1" parent="1" source="0QqT_xMATzPDEKyegkB2-6" target="0QqT_xMATzPDEKyegkB2-1">
          <mxGeometry relative="1" as="geometry" />
        </mxCell>
        <mxCell id="0QqT_xMATzPDEKyegkB2-5" value="Describes" style="edgeLabel;html=1;align=center;verticalAlign=middle;resizable=0;points=[];fontSize=13;fontFamily=Cousine;fontSource=https%3A%2F%2Ffonts.googleapis.com%2Fcss%3Ffamily%3DCousine;" vertex="1" connectable="0" parent="0QqT_xMATzPDEKyegkB2-4">
          <mxGeometry x="-0.25" relative="1" as="geometry">
            <mxPoint y="24" as="offset" />
          </mxGeometry>
        </mxCell>
        <mxCell id="0QqT_xMATzPDEKyegkB2-6" value="&lt;font face=&quot;Cousine&quot; data-font-src=&quot;https://fonts.googleapis.com/css?family=Cousine&quot;&gt;SO:Dataset&lt;br&gt;gid.01&lt;/font&gt;" style="strokeWidth=2;html=1;shape=mxgraph.flowchart.document2;whiteSpace=wrap;size=0.25;" vertex="1" parent="1">
          <mxGeometry x="120" y="160" width="100" height="60" as="geometry" />
        </mxCell>
        <mxCell id="0QqT_xMATzPDEKyegkB2-7" style="edgeStyle=orthogonalEdgeStyle;rounded=0;orthogonalLoop=1;jettySize=auto;html=1;exitX=0.5;exitY=0;exitDx=0;exitDy=0;exitPerimeter=0;entryX=1;entryY=0.5;entryDx=0;entryDy=0;entryPerimeter=0;fontFamily=Cousine;fontSource=https%3A%2F%2Ffonts.googleapis.com%2Fcss%3Ffamily%3DCousine;fontSize=13;" edge="1" parent="1" source="0QqT_xMATzPDEKyegkB2-9" target="0QqT_xMATzPDEKyegkB2-1">
          <mxGeometry relative="1" as="geometry" />
        </mxCell>
        <mxCell id="0QqT_xMATzPDEKyegkB2-8" value="Describes" style="edgeLabel;html=1;align=center;verticalAlign=middle;resizable=0;points=[];fontSize=13;fontFamily=Cousine;" vertex="1" connectable="0" parent="0QqT_xMATzPDEKyegkB2-7">
          <mxGeometry x="-0.2642" y="-1" relative="1" as="geometry">
            <mxPoint x="-1" y="16" as="offset" />
          </mxGeometry>
        </mxCell>
        <mxCell id="0QqT_xMATzPDEKyegkB2-9" value="&lt;font face=&quot;Cousine&quot; data-font-src=&quot;https://fonts.googleapis.com/css?family=Cousine&quot;&gt;SO:Dataset&lt;br&gt;gid.02&lt;/font&gt;" style="strokeWidth=2;html=1;shape=mxgraph.flowchart.document2;whiteSpace=wrap;size=0.25;" vertex="1" parent="1">
          <mxGeometry x="400" y="160" width="100" height="60" as="geometry" />
        </mxCell>
      </root>
    </mxGraphModel>
  </diagram>
</mxfile>
